<svg width="567" height="396" viewBox="0 0 567 396" fill="none" xmlns="http://www.w3.org/2000/svg">
<path d="M101.204 21.9646C93.7923 21.0272 91.5728 14.7892 93.031 8.01878C94.4778 1.31014 101.117 0.0100711 106.878 0.95908C113.256 2.00839 115.105 6.56055 114.908 12.6288C114.643 20.707 107.912 22.8133 101.204 21.9646ZM108.64 10.1153C108.642 9.5459 108.534 8.98165 108.322 8.45481C108.11 7.92797 107.798 7.44885 107.404 7.0448C107.01 6.64075 106.542 6.31968 106.026 6.09993C105.51 5.88019 104.957 5.76606 104.398 5.76408L103.239 5.75995C102.68 5.75796 102.126 5.86815 101.609 6.08422C101.091 6.30029 100.621 6.61802 100.224 7.01926C99.8275 7.42049 99.5123 7.89739 99.2966 8.42271C99.0808 8.94803 98.9688 9.51148 98.9668 10.0809L98.9577 12.7351C98.9558 13.3045 99.064 13.8687 99.2761 14.3956C99.4882 14.9224 99.8002 15.4015 100.194 15.8056C100.588 16.2096 101.056 16.5307 101.572 16.7504C102.088 16.9702 102.641 17.0843 103.2 17.0863L104.359 17.0904C104.918 17.0924 105.472 16.9822 105.989 16.7662C106.506 16.5501 106.977 16.2324 107.374 15.8311C107.77 15.4299 108.085 14.953 108.301 14.4277C108.517 13.9023 108.629 13.3389 108.631 12.7695L108.64 10.1153Z" fill="#FFC700"/>
<path d="M224.753 1.00522C225.173 4.06443 224.401 7.13135 222.359 9.446C222.286 9.5283 222.196 9.55916 222.09 9.53859L218.42 8.77861C218.251 8.74518 218.199 8.64616 218.265 8.48156C219.234 6.07689 219.574 3.57449 219.284 0.974358C219.269 0.838051 219.328 0.769897 219.462 0.769897H224.488C224.644 0.769897 224.733 0.848339 224.753 1.00522Z" fill="#FFC700"/>
<path d="M20.4733 1.35237H14.7315C14.6415 1.35237 14.5686 1.42664 14.5686 1.51826V21.3009C14.5686 21.3925 14.6415 21.4667 14.7315 21.4667H20.4733C20.5633 21.4667 20.6362 21.3925 20.6362 21.3009V1.51826C20.6362 1.42664 20.5633 1.35237 20.4733 1.35237Z" fill="#FFC700"/>
<path d="M31.7948 1.3526H26.015C25.9314 1.3526 25.8635 1.42169 25.8635 1.50691V21.3127C25.8635 21.3979 25.9314 21.467 26.015 21.467H31.7948C31.8784 21.467 31.9463 21.3979 31.9463 21.3127V1.50691C31.9463 1.42169 31.8784 1.3526 31.7948 1.3526Z" fill="#FFC700"/>
<path d="M49.0501 6.41013V21.3281C49.0501 21.3463 49.0466 21.3644 49.0398 21.3812C49.0329 21.3981 49.0229 21.4134 49.0102 21.4263C48.9976 21.4392 48.9825 21.4494 48.966 21.4564C48.9494 21.4634 48.9317 21.467 48.9138 21.467H43.1416C43.1237 21.467 43.106 21.4634 43.0895 21.4564C43.0729 21.4494 43.0579 21.4392 43.0452 21.4263C43.0326 21.4134 43.0225 21.3981 43.0157 21.3812C43.0088 21.3644 43.0053 21.3463 43.0053 21.3281V6.41013C43.0053 6.37329 42.9909 6.33797 42.9654 6.31192C42.9398 6.28588 42.9051 6.27125 42.8689 6.27125H36.2825C36.2463 6.27125 36.2116 6.25662 36.1861 6.23057C36.1605 6.20453 36.1461 6.1692 36.1461 6.13237V1.49148C36.1461 1.45465 36.1605 1.41932 36.1861 1.39328C36.2116 1.36723 36.2463 1.3526 36.2825 1.3526H55.8033C55.8394 1.3526 55.8741 1.36723 55.8997 1.39328C55.9253 1.41932 55.9396 1.45465 55.9396 1.49148V6.13237C55.9396 6.1692 55.9253 6.20453 55.8997 6.23057C55.8741 6.25662 55.8394 6.27125 55.8033 6.27125H49.1865C49.1503 6.27125 49.1157 6.28588 49.0901 6.31192C49.0645 6.33797 49.0501 6.37329 49.0501 6.41013Z" fill="#FFC700"/>
<path d="M84.4442 10.0598C84.3911 10.0572 84.3621 10.0817 84.357 10.1331V10.137C84.352 10.191 84.3747 10.2218 84.4252 10.2295C86.9591 10.7118 88.7543 11.5643 89.0952 14.4384C89.7467 19.9241 86.0311 21.4672 81.452 21.4826C77.4019 21.4955 73.3518 21.4839 69.3017 21.4479C69.1553 21.4479 69.082 21.3733 69.082 21.2242V1.55344C69.082 1.42742 69.1439 1.36441 69.2676 1.36441C73.2698 1.34383 77.2529 1.34254 81.2172 1.36055C83.2965 1.37212 85.7925 1.54186 87.3189 2.91908C89.0308 4.46605 89.2581 7.66799 87.3302 9.17637C86.5424 9.79362 85.5804 10.0881 84.4442 10.0598ZM74.8542 6.04773L74.8618 8.94105C74.8618 9.00551 74.8869 9.06733 74.9317 9.11291C74.9764 9.15848 75.0371 9.18409 75.1004 9.18409L80.7362 9.17252C81.2293 9.17137 81.7018 9.0163 82.0499 8.74139C82.3979 8.46649 82.5929 8.09426 82.5921 7.70657V7.25135C82.5916 7.05931 82.5431 6.86925 82.4492 6.69202C82.3553 6.5148 82.218 6.35388 82.0449 6.21846C81.8719 6.08305 81.6666 5.97579 81.4407 5.9028C81.2148 5.82982 80.9729 5.79255 80.7286 5.79312L75.0928 5.80469C75.0295 5.80469 74.9688 5.8303 74.9241 5.87588C74.8793 5.92145 74.8542 5.98327 74.8542 6.04773ZM74.8693 13.4971L74.8618 16.591C74.8618 16.6493 74.8845 16.7052 74.925 16.7465C74.9655 16.7877 75.0204 16.8109 75.0777 16.8109L81.2437 16.8225C81.472 16.823 81.6982 16.7819 81.9093 16.7015C82.1205 16.6212 82.3124 16.5031 82.4742 16.3541C82.636 16.2051 82.7644 16.028 82.8522 15.833C82.9401 15.638 82.9855 15.4289 82.986 15.2176V14.9013C82.9869 14.4747 82.8047 14.0651 82.4794 13.7627C82.1541 13.4603 81.7123 13.2898 81.2513 13.2887L75.0852 13.2772C75.0569 13.2772 75.0288 13.2829 75.0026 13.2939C74.9764 13.305 74.9526 13.3212 74.9326 13.3416C74.9125 13.362 74.8966 13.3862 74.8858 13.4129C74.8749 13.4396 74.8693 13.4682 74.8693 13.4971Z" fill="#FFC700"/>
<path d="M138.162 8.312L134.791 18.8861C134.753 19.0044 134.672 19.0636 134.548 19.0636L129.325 19.0713C129.278 19.0714 129.232 19.0561 129.193 19.0278C129.155 18.9994 129.125 18.9594 129.11 18.9131L125.625 8.07668C125.612 8.03083 125.583 7.99135 125.544 7.96557C125.504 7.9398 125.457 7.92949 125.411 7.93656C125.364 7.94364 125.322 7.96762 125.292 8.00404C125.262 8.04046 125.246 8.08684 125.246 8.13455L124.89 21.2895C124.889 21.3369 124.87 21.3821 124.836 21.4153C124.802 21.4484 124.756 21.467 124.709 21.467H119.107C119.089 21.467 119.072 21.4634 119.056 21.4563C119.04 21.4492 119.025 21.4389 119.013 21.4259C119.001 21.4129 118.992 21.3975 118.986 21.3807C118.98 21.3638 118.977 21.346 118.978 21.3281L119.864 1.53777C119.869 1.41433 119.931 1.3526 120.05 1.3526H128.068C128.184 1.3526 128.26 1.40918 128.295 1.52234L131.749 12.6674C131.761 12.7047 131.782 12.7381 131.81 12.7639C131.838 12.7897 131.872 12.807 131.909 12.814C132.025 12.8346 132.104 12.7729 132.147 12.6288C133.291 8.93053 134.445 5.23479 135.609 1.54163C135.647 1.41561 135.73 1.3526 135.859 1.3526L143.816 1.35646C143.945 1.35646 144.012 1.42204 144.017 1.5532L144.892 21.2201C144.9 21.3847 144.823 21.467 144.661 21.467H139.154C139.048 21.467 138.992 21.4117 138.987 21.3011L138.609 8.37758C138.583 7.48258 138.434 7.46072 138.162 8.312Z" fill="#FFC700"/>
<path d="M165.259 10.2483C168.963 10.8964 170.645 13.0837 169.838 17.0109C169.012 21.0153 165.058 21.5322 161.801 21.5245C157.895 21.5168 153.987 21.4885 150.079 21.4397C149.94 21.4371 149.87 21.3651 149.87 21.2236L149.874 1.55289C149.874 1.43201 149.933 1.37029 150.052 1.36772C154.093 1.32914 158.131 1.41401 162.153 1.34457C165.638 1.28285 170.274 2.282 169.368 7.13893C168.933 9.4613 167.255 9.82007 165.263 10.0747C165.243 10.0784 165.225 10.089 165.212 10.1045C165.199 10.12 165.192 10.1396 165.192 10.1599C165.191 10.1803 165.198 10.2002 165.21 10.2162C165.222 10.2323 165.239 10.2436 165.259 10.2483ZM155.661 6.0086V8.95593C155.661 8.9838 155.667 9.01139 155.677 9.03713C155.688 9.06287 155.703 9.08626 155.722 9.10596C155.742 9.12567 155.765 9.1413 155.79 9.15196C155.815 9.16262 155.842 9.16811 155.87 9.16811H161.585C161.824 9.16811 162.06 9.13009 162.281 9.05623C162.501 8.98236 162.702 8.8741 162.871 8.73761C163.039 8.60113 163.173 8.4391 163.265 8.26078C163.356 8.08245 163.403 7.89132 163.403 7.6983V7.26623C163.403 7.07322 163.356 6.88209 163.265 6.70376C163.173 6.52544 163.039 6.36341 162.871 6.22692C162.702 6.09044 162.501 5.98217 162.281 5.90831C162.06 5.83444 161.824 5.79642 161.585 5.79642H155.87C155.814 5.79642 155.761 5.81878 155.722 5.85857C155.683 5.89836 155.661 5.95233 155.661 6.0086ZM155.68 13.5004L155.673 16.5866C155.673 16.6449 155.695 16.7008 155.736 16.7421C155.776 16.7833 155.831 16.8065 155.889 16.8065L162.085 16.8181C162.308 16.8186 162.53 16.7777 162.736 16.6977C162.943 16.6177 163.13 16.5002 163.289 16.3519C163.447 16.2036 163.573 16.0274 163.658 15.8333C163.744 15.6393 163.789 15.4312 163.789 15.2209V14.8969C163.79 14.4723 163.612 14.0647 163.294 13.7638C162.976 13.4628 162.544 13.2931 162.093 13.2921L155.896 13.2805C155.868 13.2805 155.84 13.2862 155.814 13.2972C155.787 13.3083 155.764 13.3245 155.744 13.3449C155.723 13.3653 155.708 13.3896 155.697 13.4162C155.686 13.4429 155.68 13.4715 155.68 13.5004Z" fill="#FFC700"/>
<path d="M188.203 17.1499L180.064 17.1538C180.036 17.154 180.009 17.163 179.987 17.1796C179.964 17.1962 179.948 17.2195 179.939 17.2464L178.549 21.3742C178.54 21.401 178.523 21.4243 178.501 21.4409C178.479 21.4575 178.452 21.4666 178.424 21.4667H172.504C172.483 21.4668 172.462 21.4616 172.443 21.4516C172.424 21.4416 172.407 21.4271 172.395 21.4093C172.383 21.3915 172.375 21.3709 172.372 21.3494C172.369 21.3278 172.372 21.3059 172.379 21.2854L179.712 1.4411C179.721 1.41502 179.738 1.3925 179.76 1.37662C179.783 1.36074 179.809 1.35228 179.837 1.35237H188.491C188.518 1.35306 188.543 1.36188 188.565 1.37771C188.587 1.39354 188.603 1.41563 188.612 1.4411L195.873 21.2854C195.88 21.3056 195.883 21.3272 195.88 21.3484C195.877 21.3697 195.87 21.39 195.858 21.4078C195.846 21.4255 195.83 21.4401 195.812 21.4503C195.793 21.4606 195.773 21.4662 195.752 21.4667H189.798C189.77 21.4666 189.743 21.4575 189.721 21.4409C189.698 21.4243 189.681 21.401 189.673 21.3742L188.328 17.2425C188.319 17.2157 188.303 17.1923 188.28 17.1757C188.258 17.1591 188.231 17.1501 188.203 17.1499ZM181.655 12.1232C181.641 12.1629 181.637 12.2053 181.644 12.2468C181.65 12.2883 181.665 12.3277 181.69 12.3617C181.714 12.3957 181.745 12.4234 181.782 12.4423C181.819 12.4612 181.86 12.4708 181.901 12.4704L186.408 12.4782C186.449 12.4786 186.49 12.4689 186.527 12.45C186.563 12.4311 186.595 12.4034 186.619 12.3694C186.643 12.3354 186.659 12.296 186.665 12.2545C186.671 12.213 186.667 12.1707 186.654 12.131L184.408 5.32201C184.39 5.27116 184.357 5.22718 184.314 5.1961C184.271 5.16501 184.219 5.14833 184.166 5.14833C184.113 5.14833 184.061 5.16501 184.018 5.1961C183.974 5.22718 183.941 5.27116 183.923 5.32201L181.655 12.1232Z" fill="#FFC700"/>
<path d="M205.252 10.0478L209.774 1.49511C209.825 1.39995 209.903 1.35237 210.009 1.35237H216.065C216.089 1.35249 216.113 1.35899 216.133 1.37123C216.154 1.38347 216.171 1.40101 216.183 1.42211C216.195 1.4432 216.201 1.4671 216.201 1.49142C216.201 1.51574 216.195 1.53963 216.183 1.56069L208.339 15.2635C208.208 15.4924 208.142 15.738 208.142 16.0003L208.15 21.2237C208.15 21.3857 208.07 21.4667 207.911 21.4667L202.332 21.4629C202.198 21.4629 202.131 21.3947 202.131 21.2584C202.131 19.6047 202.127 17.9677 202.12 16.3475C202.117 15.828 201.986 15.3419 201.726 14.8893C199.173 10.4451 196.623 5.99712 194.075 1.54526C194.064 1.52602 194.058 1.50407 194.057 1.48163C194.057 1.45919 194.063 1.43705 194.073 1.41747C194.084 1.39789 194.1 1.38155 194.119 1.37012C194.138 1.35869 194.159 1.35256 194.181 1.35237H200.253C200.361 1.35237 200.441 1.40124 200.491 1.49897L205.006 10.0478C205.018 10.0703 205.036 10.0891 205.057 10.1022C205.079 10.1154 205.104 10.1223 205.129 10.1223C205.154 10.1223 205.179 10.1154 205.201 10.1022C205.222 10.0891 205.24 10.0703 205.252 10.0478Z" fill="#FFC700"/>
<path d="M233.006 10.1827C232.922 10.2287 232.849 10.2938 232.794 10.3729C232.738 10.452 232.702 10.543 232.687 10.6387C232.672 10.7344 232.679 10.8322 232.707 10.9244C232.735 11.0167 232.785 11.1008 232.851 11.1703C232.979 11.3092 233.19 11.4043 233.483 11.4558C234.991 11.7258 236.503 11.9701 238.021 12.1887C240.142 12.4935 242.77 13.1609 243.081 15.6839C244.096 23.9202 232.404 22.3694 227.942 20.9189C227.88 20.8996 227.825 20.8622 227.784 20.8115C227.743 20.7607 227.718 20.6988 227.711 20.6334L227.196 16.3127C227.194 16.2938 227.196 16.2746 227.204 16.2572C227.211 16.2397 227.223 16.2245 227.238 16.2131C227.253 16.2018 227.271 16.1947 227.289 16.1925C227.308 16.1903 227.326 16.1932 227.344 16.2008C230.252 17.3762 233.284 17.8172 236.437 17.524C237.661 17.4122 237.665 15.9539 236.418 15.7803C232.904 15.2904 226.113 15.4601 227.128 9.63877C228.109 4.00258 238.032 5.51096 241.535 6.68372C241.659 6.72487 241.73 6.81232 241.747 6.94605L242.236 10.7614C242.264 10.9748 242.177 11.0469 241.975 10.9774C240.028 10.31 234.873 9.17198 233.006 10.1827Z" fill="#FFC700"/>
<path d="M297.412 103.023C296.177 104.293 295.927 106.491 296.495 108.031C296.728 108.671 297.394 109.588 298.495 110.781C301.646 114.202 304.795 117.624 307.941 121.047C308.893 122.086 309.485 122.909 309.718 123.516C310.449 125.437 309.793 127.879 308.18 129.152C307.713 129.522 306.873 129.902 305.661 130.29C301.247 131.71 296.834 133.128 292.42 134.545C290.738 135.085 289.601 135.65 289.007 136.239C287.349 137.89 287.417 139.776 288.045 142.091C289.323 146.782 290.596 151.473 291.863 156.164C292.214 157.468 292.346 158.458 292.257 159.134C291.984 161.198 290.31 162.985 288.284 163.324C287.706 163.422 286.774 163.354 285.489 163.12C280.876 162.279 276.263 161.434 271.649 160.585C270.134 160.307 268.989 160.28 268.214 160.504C265.904 161.175 265.12 162.865 264.601 165.284C263.624 169.872 262.646 174.46 261.669 179.048C261.344 180.576 261.018 181.605 260.692 182.134C259.59 183.932 257.185 184.835 255.185 184.191C254.632 184.013 253.862 183.535 252.875 182.756C249.357 179.983 245.846 177.2 242.342 174.407C240.718 173.114 239.496 172.37 238.675 172.178C236.274 171.611 234.767 172.86 233.191 174.774C230.229 178.38 227.266 181.985 224.302 185.591C223.365 186.73 222.642 187.453 222.132 187.759C220.332 188.843 217.746 188.492 216.276 186.957C215.857 186.517 215.366 185.666 214.803 184.403C212.889 180.105 210.972 175.81 209.053 171.518C208.374 169.995 207.719 168.976 207.088 168.459C205.213 166.927 203.349 167.294 201.107 168.239C196.678 170.106 192.246 171.962 187.809 173.806C186.65 174.287 185.736 174.517 185.067 174.496C182.204 174.4 180.177 171.854 180.352 168.972C180.66 163.959 180.952 158.945 181.23 153.93C181.324 152.284 181.21 151.079 180.889 150.316C179.98 148.155 178.287 147.523 175.947 147.299C172.768 146.99 169.563 146.686 166.334 146.385C166.292 146.381 166.254 146.361 166.226 146.33C166.198 146.298 166.182 146.257 166.182 146.215C166.182 127.469 166.184 108.703 166.186 89.9185C166.186 89.6639 166.261 88.9425 166.41 87.7543C166.565 86.5006 166.186 85.2622 166.186 84.1743C166.184 76.9474 166.182 69.7051 166.182 62.4474C166.182 62.4174 166.194 62.3885 166.214 62.3669C166.235 62.3453 166.263 62.3327 166.292 62.3317C169.81 62.1105 173.332 61.8829 176.859 61.6488C178.463 61.5408 179.618 61.2785 180.325 60.8619C182.416 59.6197 182.734 57.7371 182.662 55.2334C182.523 50.442 182.392 45.6507 182.268 40.8594C182.233 39.4911 182.329 38.4984 182.556 37.8812C183.26 35.9754 185.237 34.6484 187.241 34.714C187.862 34.7345 188.724 34.9943 189.828 35.4932C194.189 37.4684 198.547 39.4461 202.902 41.4265C206.966 43.2743 209.103 42.2983 210.977 38.3943C212.982 34.2176 214.99 30.0422 216.999 25.8681C217.704 24.4047 218.324 23.4403 218.859 22.9748C220.95 21.1462 224.26 21.64 225.964 23.8698C228.994 27.833 232.036 31.7872 235.089 35.7324C236.129 37.0749 237.021 37.9223 237.766 38.2747C239.842 39.2507 241.505 38.5871 243.368 37.2022C247.181 34.3655 250.991 31.5262 254.799 28.6843C255.991 27.7944 256.897 27.2633 257.518 27.091C260.215 26.3503 262.912 28.148 263.449 30.9681C264.363 35.7594 265.259 40.5533 266.135 45.3498C266.516 47.4484 266.965 48.8475 267.483 49.547C268.983 51.5801 271.013 51.5492 273.505 51.1596C278.467 50.3855 283.431 49.6268 288.398 48.8835C291.079 48.4823 293.613 50.7159 293.787 53.4781C293.828 54.1056 293.636 55.1189 293.212 56.518C291.833 61.065 290.458 65.612 289.087 70.1591C288.663 71.5659 288.513 72.6692 288.636 73.469C289.026 76.046 290.689 76.9449 293.113 77.8013C297.792 79.4576 302.467 81.1164 307.138 82.7778C309.88 83.7538 311.384 86.7706 310.153 89.5135C309.913 90.0484 309.388 90.7312 308.578 91.5619C304.853 95.3811 301.131 99.2016 297.412 103.023ZM266.226 73.4497C265.294 73.2491 264.82 72.6743 264.514 71.7562C263.572 68.9452 262.629 66.1329 261.684 63.3193C260.938 61.0933 259.522 60.8696 257.639 62.1349C255.367 63.6652 253.093 65.1967 250.818 66.7295C250.011 67.2735 248.947 67.7557 248.174 67.204C245.622 65.3832 243.071 63.5559 240.524 61.7221C238.505 60.2678 237.319 61.1821 236.532 63.3154C235.522 66.0415 234.504 68.7651 233.479 71.4861C233.103 72.4789 232.408 72.9791 231.396 72.9868C228.388 73.01 225.382 73.0511 222.378 73.1103C220.158 73.1527 219.564 74.5222 220.132 76.6054C220.836 79.1952 221.542 81.7864 222.249 84.3788C222.677 85.9528 222.753 86.786 221.45 87.7775C219.129 89.5469 216.809 91.3176 214.488 93.0896C212.629 94.5093 212.852 95.9482 214.613 97.3717C216.967 99.2775 219.268 101.143 221.518 102.969C221.842 103.232 222.081 103.589 222.204 103.992C222.327 104.395 222.328 104.826 222.207 105.23C221.384 107.982 220.529 110.798 219.643 113.678C218.886 116.132 219.518 117.332 222.181 117.451C224.872 117.57 227.565 117.692 230.26 117.818C231.456 117.872 232.422 118.13 232.812 119.303C233.779 122.209 234.751 125.115 235.729 128.022C236.535 130.413 238.02 130.394 239.929 129.102C242.194 127.566 244.463 126.037 246.735 124.515C247.542 123.975 248.534 123.624 249.314 124.183C251.791 125.953 254.265 127.727 256.734 129.507C258.711 130.934 259.991 130.425 260.84 128.134C261.868 125.359 262.907 122.587 263.957 119.82C264.321 118.858 265.019 118.371 266.051 118.358C269.001 118.319 271.95 118.277 274.899 118.231C277.478 118.192 277.823 116.676 277.194 114.384C276.465 111.746 275.746 109.103 275.039 106.457C274.789 105.527 274.789 104.458 275.535 103.887C277.952 102.036 280.372 100.19 282.796 98.3516C284.826 96.8124 284.614 95.4274 282.686 93.8689C280.542 92.138 278.401 90.4033 276.263 88.6648C275.479 88.0282 274.876 87.1988 275.168 86.2267C276.044 83.305 276.93 80.3847 277.827 77.4657C278.599 74.962 277.6 73.9705 275.107 73.8702C272.214 73.7571 269.314 73.6246 266.407 73.4729C266.347 73.4703 266.286 73.4626 266.226 73.4497Z" fill="#FFC700"/>
<path d="M382.168 170.172C387.912 170.403 393.489 170.132 398.897 169.358C429.065 165.041 450.146 142.743 452.108 111.78C452.706 102.348 451.975 92.5109 449.725 83.3333C446.711 71.0425 440.082 61.0007 429.129 54.566C419.702 49.0224 409.26 49.601 400.264 55.596C400.24 55.6119 400.212 55.6197 400.182 55.6184C400.153 55.617 400.125 55.6065 400.102 55.5883C390.799 48.1685 380.324 43.3528 368.677 41.141C368.644 41.1347 368.614 41.1171 368.593 41.091C368.571 41.065 368.56 41.0322 368.559 40.9982V25.0232C368.559 24.9915 368.572 24.9611 368.594 24.9387C368.616 24.9163 368.645 24.9037 368.677 24.9037C374.615 24.8754 380.554 24.8882 386.493 24.9422C416.839 25.22 451.153 32.326 471.791 57.2857C483.536 71.49 488.691 90.0805 488.263 108.443C488.041 117.846 486.041 126.765 482.264 135.201C472.193 157.696 450.313 170.665 427.743 176.637C414.028 180.267 399.889 181.822 385.736 181.945C380.072 181.994 374.408 182.007 368.745 181.984C368.696 181.983 368.65 181.963 368.616 181.927C368.582 181.892 368.563 181.844 368.563 181.795L368.559 111.059C368.559 111.039 368.564 111.02 368.573 111.002C368.582 110.984 368.595 110.969 368.612 110.958C368.628 110.947 368.647 110.939 368.667 110.937C368.687 110.934 368.707 110.936 368.726 110.943C374.612 113.178 378.895 117.15 381.577 122.86C381.839 123.418 381.97 124.03 381.967 124.696C381.944 139.79 381.948 154.882 381.978 169.971C381.978 170.1 382.041 170.166 382.168 170.172Z" fill="#FFC700"/>
<path d="M127.06 81.8833C127.064 80.645 125.602 79.8464 124.587 79.9622C123.186 80.1203 122.83 81.1349 122.587 82.4852C116.146 118.676 109.698 154.9 103.244 191.158C103.22 191.291 103.151 191.412 103.048 191.498C102.946 191.584 102.817 191.63 102.684 191.629C98.298 191.588 93.888 191.538 89.4541 191.479C86.0706 191.435 83.6302 191.208 82.1329 190.8C75.6032 189.017 70.3802 183.443 68.9448 176.75C68.6342 175.299 68.4852 172.739 68.4979 169.069C68.5837 142.075 68.6645 115.081 68.7403 88.0866C68.7428 87.1762 68.643 86.5294 68.441 86.1462C67.5055 84.36 64.7179 84.9271 64.3922 87.0952C57.9686 129.754 51.5349 172.411 45.0911 215.065C45.0355 215.44 44.8045 215.698 44.398 215.836C44.1429 215.924 43.999 215.831 43.9662 215.559C43.0269 208.116 42.0876 200.645 41.1483 193.145C40.8932 191.098 40.5259 189.627 40.0461 188.732C37.5009 183.964 31.153 182.953 27.2898 186.629C26.6005 187.285 25.9111 188.307 25.2218 189.696C21.9898 196.213 18.749 202.724 15.4993 209.228C15.4387 209.349 15.3427 209.42 15.2114 209.44L10.8407 210.108C10.6917 210.131 10.6172 210.065 10.6172 209.911C10.6197 155.758 10.6185 101.606 10.6134 47.4528C10.6134 43.8883 10.799 41.3331 11.1702 39.7875C12.8026 32.9824 18.7262 27.6239 25.7256 26.8832C34.3383 25.9767 42.5345 31.8482 44.2199 40.6554C44.4346 41.7793 44.5419 43.6182 44.5419 46.172C44.5444 82.3244 44.5444 118.477 44.5419 154.629C44.5419 156.338 45.0608 157.719 46.9432 157.58C48.0112 157.503 48.6336 156.881 48.8104 155.713C55.0573 114.62 61.2789 73.5236 67.4752 32.423C67.801 30.2601 68.1797 28.825 68.6115 28.1177C69.8917 26.0191 71.793 25.6526 74.2852 25.6565C76.8682 25.659 79.4513 25.659 82.0344 25.6565C84.8826 25.6539 87.0415 25.8262 88.511 26.1734C95.5558 27.8515 101.366 33.8041 102.559 41.3074C102.726 42.3619 102.809 44.2123 102.809 46.8587C102.806 76.0903 102.806 105.321 102.809 134.55C102.809 135.308 102.907 135.864 103.104 136.216C103.797 137.462 105.839 137.628 106.676 136.536C106.928 136.207 107.138 135.578 107.305 134.65C113.582 99.5107 119.859 64.3717 126.136 29.2326C126.594 26.6633 128.492 26.05 130.931 26.0422C133.805 26.0371 136.677 26.0358 139.548 26.0384C143.075 26.0435 145.585 26.2351 147.077 26.6132C153.758 28.3068 159.114 33.9507 160.572 40.7365C160.885 42.1998 161.042 44.7588 161.042 48.4134C161.039 105.135 161.039 161.857 161.042 218.579C161.042 220.427 160.451 221.723 158.481 221.596C158.35 221.588 158.253 221.525 158.19 221.407C152.352 210.171 143.758 202.024 132.408 196.968C130.783 196.243 128.791 195.572 126.966 194.939C126.909 194.92 126.86 194.883 126.826 194.834C126.791 194.784 126.772 194.726 126.772 194.665C126.871 157.07 126.967 119.476 127.06 81.8833Z" fill="#FFC700"/>
<path d="M363.242 180.121C333.57 183.516 306.641 166.966 294.635 139.553C294.624 139.528 294.619 139.501 294.619 139.474C294.619 139.447 294.625 139.42 294.636 139.395C294.647 139.37 294.663 139.348 294.683 139.33C294.703 139.312 294.727 139.299 294.752 139.291C298.734 138.02 302.717 136.742 306.702 135.456C308.659 134.823 310.042 134.232 310.853 133.681C314.792 131 316.254 125.356 314.311 121.117C313.803 120.016 312.682 118.524 310.948 116.642C307.806 113.234 304.67 109.828 301.539 106.422C301.481 106.358 301.483 106.295 301.543 106.233C305.412 102.257 309.29 98.2787 313.178 94.2975C317.348 90.0308 316.099 82.4156 311.432 79.1635C308.948 77.4314 304.312 76.2316 300.968 75.0203C300.816 74.9663 300.787 74.8724 300.88 74.7387C317.102 51.1369 345.698 39.8066 373.237 47.5569C408.453 57.4675 429.527 94.2666 420.024 130.31C416.519 143.609 409.702 154.785 399.571 163.838C399.478 163.92 399.372 163.971 399.253 163.992C395.314 164.637 391.349 164.963 387.357 164.968C387.22 164.968 387.151 164.897 387.148 164.756C387.133 157.506 387.135 150.266 387.152 143.036C387.155 142.309 387.276 141.553 387.516 140.768C392.773 123.713 381.088 106.052 363.764 104.54C347.179 103.089 333.354 116.649 333.847 133.288C334.317 149.325 347.614 161.021 363.196 160.3C363.325 160.295 363.389 160.358 363.389 160.489V179.951C363.389 180.054 363.34 180.111 363.242 180.121Z" fill="#FFC700"/>
<path d="M112.691 265.085C111.229 255.904 107.843 249.261 97.1547 250.765C90.3145 251.733 85.8907 256.984 84.5916 263.662C84.3239 265.025 84.1901 267.042 84.1901 269.714C84.1876 310.784 84.1876 351.849 84.1901 392.908C84.1901 392.957 84.1709 393.004 84.1368 393.039C84.1027 393.074 84.0565 393.093 84.0083 393.093H52.2917C52.2656 393.093 52.2406 393.083 52.2221 393.064C52.2036 393.045 52.1932 393.02 52.1932 392.993C52.1932 347.294 52.192 301.585 52.1895 255.865C52.1895 248.651 52.8523 242.293 54.7044 235.542C55.1286 233.984 56.155 232.657 56.4731 230.874C56.6549 229.856 56.838 229.114 57.0223 228.648C62.446 214.95 72.7367 204.661 86.5724 200.159C97.0979 196.733 108.911 196.409 119.418 198.384C144.961 203.187 159.19 224.312 161.152 249.507C161.283 251.192 161.349 253.763 161.349 257.219C161.362 292.065 161.363 326.939 161.353 361.842C161.353 361.888 161.335 361.932 161.303 361.964C161.271 361.997 161.228 362.015 161.183 362.015H113.214C113.199 362.015 113.185 362.012 113.172 362.007C113.158 362.001 113.146 361.994 113.136 361.984C113.126 361.973 113.118 361.962 113.112 361.948C113.107 361.935 113.104 361.921 113.104 361.907C113.104 331.865 113.104 301.816 113.104 271.759C113.104 269.023 112.966 266.798 112.691 265.085Z" fill="#FFC700"/>
<path d="M216.283 198.033C217.152 196.153 218.62 195.45 220.688 195.926C222.284 196.291 223.11 197.372 223.165 199.167C223.226 201.204 223.244 203.196 223.218 205.142C223.217 205.178 223.203 205.211 223.178 205.235C223.153 205.26 223.12 205.274 223.086 205.274H219.772C219.696 205.274 219.658 205.235 219.658 205.158V200.424C219.658 199.295 219.104 198.758 217.995 198.812L217.878 198.82C216.774 198.874 216.223 199.463 216.223 200.586L216.227 205.146C216.227 205.231 216.184 205.274 216.098 205.274L212.757 205.266C212.729 205.266 212.702 205.254 212.682 205.233C212.662 205.212 212.651 205.184 212.651 205.154L212.647 192.967C212.647 192.893 212.685 192.855 212.761 192.855L216.067 192.875C216.1 192.875 216.13 192.888 216.153 192.911C216.176 192.934 216.189 192.965 216.189 192.998L216.17 198.006C216.167 198.191 216.205 198.2 216.283 198.033Z" fill="#FFC700"/>
<path d="M206.982 199.054C206.949 199.797 206.939 200.541 206.952 201.284C206.986 203.12 209.739 202.522 210.694 202.102C210.704 202.097 210.715 202.095 210.726 202.096C210.738 202.097 210.748 202.101 210.758 202.108C210.767 202.115 210.774 202.124 210.779 202.134C210.784 202.144 210.786 202.156 210.785 202.167L210.478 204.864C210.468 204.946 210.423 205.002 210.345 205.03C207.88 205.913 203.543 206.091 203.467 202.241C203.444 201.186 203.438 200.129 203.448 199.07C203.448 198.944 203.386 198.881 203.263 198.881H202.335C202.143 198.881 202.047 198.783 202.047 198.587V196.431C202.047 196.223 202.149 196.118 202.354 196.118L203.266 196.122C203.42 196.122 203.497 196.044 203.497 195.887L203.49 194.352C203.487 194.053 203.632 193.894 203.925 193.873L206.554 193.684C206.852 193.661 206.994 193.801 206.982 194.105L206.914 195.821C206.904 196.017 206.996 196.116 207.19 196.118L210.607 196.122C210.624 196.122 210.641 196.126 210.657 196.133C210.672 196.14 210.687 196.151 210.698 196.164C210.71 196.177 210.718 196.192 210.723 196.209C210.728 196.226 210.73 196.244 210.728 196.261L210.41 198.769C210.405 198.8 210.39 198.828 210.367 198.849C210.344 198.87 210.315 198.881 210.285 198.881L207.16 198.877C207.046 198.877 206.987 198.936 206.982 199.054Z" fill="#FFC700"/>
<path d="M282.527 195.907L282.523 194.364C282.523 194.058 282.674 193.894 282.974 193.874L285.553 193.681C285.874 193.658 286.027 193.811 286.012 194.14L285.921 195.884C285.913 196.04 285.986 196.119 286.14 196.119L289.629 196.123C289.645 196.123 289.662 196.126 289.677 196.133C289.693 196.14 289.706 196.15 289.718 196.163C289.729 196.176 289.737 196.191 289.742 196.207C289.747 196.224 289.748 196.241 289.746 196.258L289.432 198.742C289.422 198.832 289.371 198.877 289.28 198.877L286.216 198.881C286.08 198.881 286.008 198.95 286 199.089C285.947 200.351 285.455 202.569 287.546 202.523C288.376 202.502 289.098 202.37 289.712 202.125C289.722 202.122 289.733 202.12 289.744 202.122C289.754 202.123 289.764 202.127 289.773 202.134C289.782 202.141 289.789 202.149 289.793 202.159C289.798 202.169 289.8 202.18 289.799 202.191L289.5 204.857C289.49 204.934 289.449 204.987 289.379 205.015C286.906 205.933 282.679 206.095 282.504 202.341C282.444 201.017 282.426 199.936 282.451 199.097C282.452 199.068 282.448 199.038 282.437 199.011C282.427 198.984 282.412 198.959 282.392 198.938C282.372 198.917 282.348 198.9 282.322 198.889C282.296 198.878 282.268 198.873 282.239 198.873L281.395 198.881C281.198 198.884 281.099 198.785 281.099 198.584V196.385C281.099 196.205 281.189 196.115 281.368 196.115L282.311 196.123C282.455 196.123 282.527 196.051 282.527 195.907Z" fill="#FFC700"/>
<path d="M196.277 205.304C199.349 206.11 201.106 207.476 200.837 211.021C200.349 217.456 190.07 216.815 186.036 215.932C183.975 215.481 182.021 214.185 181.491 211.947C180.65 208.413 182.532 205.755 186.025 205.296C186.085 205.288 186.114 205.254 186.112 205.192C186.112 205.159 186.102 205.125 186.081 205.092C186.079 205.087 186.074 205.083 186.066 205.08C183.816 204.721 181.885 203.776 181.639 201.184C181.302 197.573 184.116 195.856 187.168 195.37C190.842 194.784 201.243 194.371 200.58 201.192C200.349 203.583 198.413 204.745 196.292 205.03C195.825 205.092 195.82 205.183 196.277 205.304ZM194.209 199.513C192.482 198.948 190.669 198.842 188.77 199.197C186.411 199.641 185.843 202.233 188.407 203.128C190.397 203.823 192.314 203.77 194.16 202.97C195.762 202.279 195.952 200.084 194.209 199.513ZM194.024 207.997C191.971 207.221 189.134 207.009 187.362 208.379C185.903 209.509 186.608 211.507 188.221 211.989C189.653 212.418 194.702 212.869 195.452 210.666C195.891 209.37 195.205 208.444 194.024 207.997Z" fill="#FFC700"/>
<path d="M360.977 196.47C361.049 196.5 361.112 196.55 361.159 196.614C361.205 196.678 361.234 196.753 361.242 196.832L361.617 200.883C361.62 200.911 361.615 200.94 361.604 200.965C361.592 200.991 361.574 201.013 361.551 201.029C361.528 201.046 361.502 201.055 361.474 201.057C361.446 201.059 361.418 201.054 361.393 201.041C355.64 198.117 347.872 198.703 349.493 207.626C350.535 213.382 358.079 212.152 361.594 210.3C361.616 210.288 361.641 210.282 361.667 210.284C361.692 210.285 361.716 210.293 361.737 210.308C361.758 210.322 361.775 210.341 361.785 210.365C361.796 210.388 361.801 210.413 361.799 210.439L361.424 214.59C361.418 214.659 361.394 214.725 361.355 214.781C361.316 214.837 361.262 214.882 361.2 214.91C357.653 216.504 353.966 216.782 350.141 215.743C344.138 214.111 343.081 207.734 344.111 202.349C345.656 194.275 354.943 193.912 360.977 196.47Z" fill="#FFC700"/>
<path d="M410.23 207.703C410.23 209.982 409.341 212.167 407.76 213.778C406.178 215.389 404.032 216.295 401.795 216.295H399.106C396.869 216.295 394.724 215.389 393.142 213.778C391.56 212.167 390.671 209.982 390.671 207.703V203.738C390.671 201.459 391.56 199.274 393.142 197.663C394.724 196.052 396.869 195.146 399.106 195.146H401.795C404.032 195.146 406.178 196.052 407.76 197.663C409.341 199.274 410.23 201.459 410.23 203.738V207.703ZM404.901 203.684C404.902 203.132 404.796 202.586 404.589 202.076C404.383 201.565 404.08 201.102 403.698 200.711C403.315 200.32 402.861 200.01 402.361 199.798C401.861 199.586 401.325 199.476 400.783 199.475L400.139 199.474C399.046 199.472 397.996 199.913 397.221 200.699C396.446 201.486 396.01 202.554 396.008 203.668L396.001 207.749C396 208.301 396.106 208.848 396.312 209.358C396.518 209.868 396.821 210.331 397.204 210.722C397.586 211.113 398.04 211.423 398.54 211.635C399.04 211.847 399.576 211.957 400.118 211.958L400.762 211.959C401.856 211.961 402.906 211.52 403.681 210.734C404.455 209.947 404.892 208.879 404.894 207.765L404.901 203.684Z" fill="#FFC700"/>
<path d="M246.929 211.426H255.451C255.567 211.426 255.625 211.485 255.625 211.604V215.566C255.625 215.694 255.562 215.759 255.436 215.759H239.263C239.134 215.759 239.07 215.693 239.07 215.562V211.311C239.07 211.253 239.085 211.196 239.113 211.145C239.14 211.095 239.181 211.052 239.229 211.021C241.832 209.458 244.434 207.86 247.035 206.23C248.346 205.408 249.751 204.216 249.97 202.615C250.167 201.165 249.471 200.237 247.88 199.834C245.297 199.174 241.88 200.1 239.388 201.273C239.372 201.28 239.355 201.282 239.338 201.28C239.321 201.278 239.304 201.271 239.291 201.261C239.277 201.25 239.266 201.236 239.259 201.22C239.252 201.204 239.25 201.186 239.252 201.168L239.733 196.948C239.746 196.832 239.806 196.75 239.915 196.701C243.551 195.069 249.997 194.159 253.315 196.909C255.883 199.039 255.977 203.418 253.921 205.995C252.213 208.136 249.122 209.744 246.857 211.16C246.569 211.338 246.593 211.426 246.929 211.426Z" fill="#FFC700"/>
<path d="M379.668 211.426H388.004C388.179 211.426 388.266 211.515 388.266 211.692L388.269 215.523C388.269 215.68 388.192 215.758 388.038 215.758L371.915 215.755C371.786 215.755 371.722 215.689 371.722 215.558L371.718 211.314C371.718 211.257 371.733 211.2 371.76 211.15C371.788 211.1 371.829 211.058 371.877 211.029C375.649 208.733 378.96 206.982 381.361 204.934C382.683 203.807 383.255 201.5 381.66 200.32C379.46 198.696 374.335 200.154 372.112 201.246C372.088 201.258 372.061 201.263 372.034 201.261C372.008 201.259 371.982 201.249 371.96 201.233C371.939 201.217 371.922 201.196 371.911 201.171C371.9 201.146 371.896 201.118 371.9 201.091L372.377 196.956C372.395 196.809 372.47 196.708 372.604 196.651C377.274 194.676 387.66 193.484 387.997 201.373C388.216 206.623 383.217 208.799 379.577 211.106C379.239 211.319 379.269 211.426 379.668 211.426Z" fill="#FFC700"/>
<path d="M420.479 211.427H428.922C429.04 211.427 429.1 211.487 429.1 211.608V215.562C429.1 215.693 429.035 215.759 428.906 215.759H412.738C412.611 215.759 412.548 215.695 412.548 215.566V211.315C412.548 211.196 412.599 211.105 412.7 211.041C415.843 209.112 419.551 207.198 422.278 204.845C423.543 203.757 424.021 201.408 422.543 200.343C420.256 198.692 415.196 200.131 412.885 201.277C412.868 201.285 412.849 201.289 412.83 201.287C412.811 201.286 412.792 201.279 412.777 201.267C412.761 201.256 412.749 201.24 412.741 201.222C412.734 201.204 412.731 201.184 412.734 201.165L413.215 196.945C413.221 196.893 413.24 196.844 413.27 196.802C413.301 196.76 413.342 196.726 413.389 196.705C416.976 195.093 423.339 194.182 426.664 196.798C429.422 198.962 429.486 203.51 427.316 206.111C425.611 208.151 422.661 209.691 420.392 211.118C420.066 211.324 420.095 211.427 420.479 211.427Z" fill="#FFC700"/>
<path d="M444.14 205.305C446.318 205.582 448.113 206.508 448.522 208.85C450.117 217.943 436.766 216.704 432.02 215.099C431.909 215.061 431.847 214.982 431.834 214.864L431.421 210.74C431.419 210.718 431.423 210.696 431.432 210.675C431.44 210.655 431.454 210.637 431.472 210.623C431.489 210.61 431.51 210.601 431.531 210.598C431.553 210.595 431.575 210.597 431.596 210.605C433.72 211.419 443.557 213.826 443.193 209.212C443.019 206.994 436.334 207.538 434.622 207.5C434.47 207.494 434.395 207.416 434.395 207.264L434.398 203.704C434.398 203.578 434.459 203.515 434.58 203.515C436.552 203.494 438.513 203.446 440.462 203.372C441.23 203.344 441.88 203.182 442.413 202.886C443.344 202.369 443.326 200.868 442.651 200.197C441.5 199.051 437.265 199.421 435.773 199.692C434.326 199.954 432.949 200.311 431.641 200.764C431.631 200.768 431.619 200.769 431.608 200.768C431.597 200.766 431.587 200.761 431.578 200.754C431.569 200.747 431.563 200.738 431.558 200.728C431.554 200.717 431.553 200.706 431.554 200.695L431.986 196.628C431.988 196.599 431.998 196.571 432.016 196.547C432.033 196.524 432.057 196.506 432.084 196.497C436.618 194.858 448.503 193.237 448.473 201.003C448.465 203.68 446.613 204.872 444.227 205.089C444.169 205.094 444.127 205.112 444.102 205.143C444.079 205.173 444.072 205.207 444.079 205.243C444.084 205.279 444.104 205.299 444.14 205.305Z" fill="#FFC700"/>
<path d="M172.556 200.64L167.927 202.473C167.776 202.532 167.703 202.479 167.708 202.315L167.833 198.029C167.835 197.91 167.891 197.831 167.999 197.79C169.358 197.249 170.709 196.702 172.052 196.146C172.769 195.848 173.493 195.69 174.222 195.672C175.417 195.643 176.61 195.646 177.801 195.679C177.933 195.682 177.998 195.749 177.998 195.88V215.555C177.998 215.688 177.933 215.755 177.801 215.755H172.988C172.866 215.755 172.806 215.693 172.806 215.57V200.814C172.806 200.631 172.722 200.574 172.556 200.64Z" fill="#FFC700"/>
<path d="M262.627 200.717C262.627 200.697 262.623 200.677 262.613 200.659C262.604 200.641 262.591 200.626 262.574 200.614C262.558 200.603 262.539 200.596 262.519 200.593C262.499 200.591 262.479 200.594 262.461 200.602L257.715 202.48C257.576 202.534 257.509 202.486 257.514 202.334L257.643 198.09C257.648 197.936 257.721 197.829 257.863 197.77C259.198 197.23 260.53 196.689 261.858 196.146C262.598 195.845 263.346 195.686 264.101 195.668C265.277 195.639 266.456 195.644 267.638 195.683C267.762 195.686 267.824 195.751 267.824 195.88V215.57C267.824 215.693 267.763 215.755 267.642 215.755L262.832 215.759C262.695 215.759 262.627 215.691 262.627 215.554V200.717Z" fill="#FFC700"/>
<path d="M300.422 195.764C300.422 195.753 300.424 195.743 300.428 195.733C300.432 195.723 300.438 195.714 300.445 195.707C300.453 195.699 300.462 195.693 300.471 195.689C300.481 195.685 300.491 195.683 300.502 195.683H311.709C312.856 195.683 313.992 195.901 315.051 196.325C316.111 196.75 317.074 197.371 317.885 198.155C318.696 198.939 319.339 199.869 319.778 200.893C320.217 201.918 320.443 203.015 320.443 204.124V207.31C320.443 208.419 320.217 209.516 319.778 210.54C319.339 211.564 318.696 212.495 317.885 213.279C317.074 214.062 316.111 214.684 315.051 215.108C313.992 215.533 312.856 215.751 311.709 215.751H300.502C300.481 215.751 300.46 215.742 300.445 215.727C300.431 215.712 300.422 215.691 300.422 215.67V195.764ZM305.577 200.316L305.539 211.125C305.539 211.211 305.573 211.294 305.632 211.355C305.692 211.415 305.773 211.449 305.857 211.449L310.614 211.465C311.202 211.467 311.785 211.351 312.329 211.123C312.873 210.895 313.367 210.561 313.784 210.138C314.201 209.715 314.533 209.213 314.76 208.66C314.987 208.106 315.104 207.513 315.106 206.913L315.114 204.59C315.116 203.991 315.002 203.396 314.779 202.841C314.556 202.286 314.228 201.782 313.813 201.356C313.399 200.93 312.907 200.592 312.364 200.361C311.822 200.13 311.24 200.009 310.652 200.007L305.895 199.992C305.811 199.992 305.73 200.026 305.67 200.087C305.61 200.148 305.577 200.23 305.577 200.316Z" fill="#FFC700"/>
<path d="M329.019 199.973V203.453C329.019 203.485 329.031 203.517 329.054 203.54C329.077 203.563 329.108 203.576 329.14 203.576L340.536 203.572C340.569 203.572 340.599 203.585 340.622 203.608C340.645 203.631 340.658 203.663 340.658 203.696V207.484C340.658 207.517 340.645 207.548 340.622 207.571C340.599 207.594 340.569 207.607 340.536 207.607L329.14 207.611C329.108 207.611 329.077 207.624 329.054 207.647C329.031 207.671 329.019 207.702 329.019 207.735V211.43C329.019 211.447 329.022 211.463 329.028 211.478C329.034 211.493 329.043 211.506 329.054 211.518C329.065 211.529 329.079 211.538 329.093 211.544C329.108 211.551 329.124 211.554 329.14 211.554H341.052C341.067 211.554 341.083 211.557 341.098 211.563C341.113 211.569 341.126 211.579 341.137 211.59C341.149 211.601 341.157 211.615 341.164 211.63C341.17 211.645 341.173 211.661 341.173 211.677L341.177 215.632C341.177 215.664 341.164 215.696 341.141 215.719C341.118 215.742 341.087 215.755 341.055 215.755H324.027C323.995 215.755 323.964 215.742 323.941 215.719C323.918 215.696 323.906 215.664 323.906 215.632V195.787C323.906 195.754 323.918 195.723 323.941 195.7C323.964 195.677 323.995 195.664 324.027 195.664H340.836C340.868 195.664 340.899 195.677 340.921 195.7C340.944 195.723 340.957 195.754 340.957 195.787V199.726C340.957 199.759 340.944 199.79 340.921 199.813C340.899 199.836 340.868 199.849 340.836 199.849H329.14C329.108 199.849 329.077 199.862 329.054 199.886C329.031 199.909 329.019 199.94 329.019 199.973Z" fill="#FFC700"/>
<path d="M276.398 202.029C276.283 201.919 276.133 201.852 275.974 201.84C273.967 201.689 270.516 201.624 270.418 198.785C270.285 194.772 276.83 195.625 279.133 196.416C279.162 196.426 279.188 196.445 279.208 196.47C279.227 196.494 279.239 196.524 279.243 196.555L279.542 198.877C279.544 198.895 279.542 198.914 279.535 198.931C279.528 198.948 279.517 198.963 279.503 198.975C279.489 198.986 279.473 198.994 279.455 198.997C279.437 199 279.419 198.999 279.402 198.993C277.647 198.37 275.845 198.187 273.997 198.441C273.963 198.445 273.931 198.458 273.903 198.477C273.875 198.496 273.851 198.522 273.834 198.552C273.817 198.582 273.808 198.616 273.806 198.651C273.804 198.686 273.809 198.721 273.823 198.754L273.887 198.904C274.008 199.197 274.223 199.356 274.531 199.379C277.851 199.638 279.647 200.26 279.917 201.242C281.435 206.762 273.618 205.848 270.914 204.911C270.89 204.903 270.869 204.888 270.854 204.869C270.838 204.85 270.829 204.827 270.827 204.803L270.516 202.195C270.515 202.184 270.516 202.174 270.52 202.164C270.524 202.155 270.53 202.146 270.538 202.14C270.546 202.133 270.556 202.129 270.566 202.127C270.576 202.125 270.586 202.126 270.596 202.129C271.94 202.631 275.266 203.395 276.281 202.854C276.702 202.631 276.741 202.356 276.398 202.029Z" fill="#FFC700"/>
<path d="M236.588 205.612H226.392C226.329 205.612 226.278 205.664 226.278 205.728V209.532C226.278 209.596 226.329 209.648 226.392 209.648H236.588C236.651 209.648 236.702 209.596 236.702 209.532V205.728C236.702 205.664 236.651 205.612 236.588 205.612Z" fill="#FFC700"/>
<path d="M225.241 223.513C254.662 223.509 278.13 248.16 278.202 277.76C278.227 287.598 278.247 297.435 278.262 307.272C278.3 334.956 258.117 358.33 231.097 361.543C229.276 361.759 226.756 361.869 223.537 361.871C204.47 361.887 185.39 361.888 166.296 361.875C166.22 361.875 166.182 361.838 166.182 361.763C166.182 316.892 166.182 272.002 166.182 227.093C166.182 225.233 166.652 223.509 168.713 223.509C187.557 223.511 206.399 223.513 225.241 223.513ZM259.427 279.755C259.427 270.188 255.696 261.014 249.055 254.249C242.414 247.485 233.406 243.685 224.014 243.685C214.622 243.685 205.614 247.485 198.973 254.249C192.332 261.014 188.601 270.188 188.601 279.755C188.601 289.321 192.332 298.496 198.973 305.26C205.614 312.025 214.622 315.825 224.014 315.825C233.406 315.825 242.414 312.025 249.055 305.26C255.696 298.496 259.427 289.321 259.427 279.755Z" fill="#FFC700"/>
<path d="M410.522 276.53C410.497 276.414 410.432 276.382 410.329 276.434C400.557 281.263 390.778 286.102 380.991 290.95C374.601 294.114 369.67 284.18 376.366 280.866C389.181 274.527 401.992 268.184 414.802 261.84C417.582 260.464 419.919 261.072 421.812 263.664C440.871 289.751 437.39 326.338 413.548 348.041C397.66 362.504 375.184 367.724 354.774 361.47C325.511 352.505 307.047 323.545 311.142 292.613C316.997 248.368 365.428 224.485 403.322 246.791C404.493 247.48 405.305 248.16 405.757 248.831C407.946 252.087 405.863 256.358 402.401 257.426C399.94 258.186 397.891 257.334 395.777 256.022C382.85 248.01 365.886 250.56 355.736 261.851C339.896 279.477 347.305 308.418 370.121 315.243C393.766 322.314 415.923 301.1 410.522 276.53ZM355.092 346.398C336.605 339.489 324.39 321.546 323.409 301.679C323 293.415 324.421 284.608 328.075 277.17C328.487 276.335 328.679 275.668 328.651 275.172C328.56 273.482 326.659 272.325 325.129 272.969C324.163 273.378 323.69 274.293 323.25 275.249C313.005 297.528 318.576 324.713 336.484 341.055C350.865 354.179 371.412 357.875 389.899 352.948C393.484 351.992 396.878 350.569 400.08 348.682C401.855 347.635 402.91 346.883 403.246 346.425C404.632 344.535 403.257 341.715 401.03 342.089C400.563 342.166 399.847 342.553 398.883 343.25C397.6 344.173 396.239 344.96 394.8 345.611C382.528 351.166 367.496 351.031 355.092 346.398Z" fill="#FFC700"/>
<path d="M312.576 270.524C304.096 287.764 303.248 306.949 309.607 324.999C309.663 325.156 309.617 325.198 309.471 325.126C300.759 320.86 291.222 321.986 283.769 327.989C283.65 328.084 283.591 328.056 283.591 327.904V223.069C283.591 223.021 283.609 222.975 283.642 222.941C283.674 222.907 283.719 222.888 283.765 222.888H312.834C312.866 222.888 312.897 222.901 312.92 222.924C312.942 222.947 312.955 222.979 312.955 223.012C312.958 238.306 312.958 253.604 312.955 268.903C312.955 269.467 312.829 270.007 312.576 270.524Z" fill="#FFC700"/>
<path d="M298.791 361.895C308.608 361.895 316.566 354.263 316.566 344.848C316.566 335.433 308.608 327.8 298.791 327.8C288.974 327.8 281.016 335.433 281.016 344.848C281.016 354.263 288.974 361.895 298.791 361.895Z" fill="#FFC700"/>
<path d="M468.503 189.441L467.995 189.431C464.555 189.367 461.715 192.156 461.652 195.66L461.293 215.547C461.23 219.051 463.968 221.944 467.408 222.009L467.916 222.018C471.356 222.082 474.196 219.294 474.26 215.79L474.618 195.902C474.681 192.398 471.943 189.505 468.503 189.441Z" fill="#FFC700"/>
<path d="M505.939 197.656L505.535 197.481C502.343 196.094 498.652 197.605 497.29 200.857L489.667 219.06C488.306 222.311 489.79 226.071 492.982 227.458L493.386 227.633C496.578 229.02 500.269 227.509 501.631 224.258L509.254 206.054C510.615 202.803 509.131 199.043 505.939 197.656Z" fill="#FFC700"/>
<path d="M536.669 217.403L536.39 217.141C533.828 214.732 529.833 214.896 527.468 217.506L514.323 232.016C511.958 234.626 512.118 238.695 514.681 241.103L514.959 241.365C517.522 243.774 521.516 243.61 523.881 241L537.027 226.49C539.392 223.88 539.231 219.811 536.669 217.403Z" fill="#FFC700"/>
<path d="M421.688 256.882C420.177 256.211 419.298 256.219 417.965 255.918C417.821 255.887 417.793 255.811 417.882 255.69C436.119 230.322 470.005 222.869 496.878 238.346C521.701 252.643 533.499 283.088 524.799 310.729C511.623 352.593 461.306 367.673 427.957 339.489C427.886 339.429 427.875 339.359 427.923 339.276L432.119 331.97C432.128 331.956 432.139 331.943 432.152 331.934C432.166 331.925 432.181 331.918 432.197 331.915C432.213 331.912 432.229 331.913 432.244 331.917C432.259 331.921 432.274 331.929 432.286 331.939C448.572 346.34 471.418 349.484 490.716 339.45C516.649 325.967 526.697 293.377 513.069 267.163C495.378 233.138 448.83 229.064 425.582 259.567C425.565 259.59 425.543 259.609 425.517 259.622C425.492 259.636 425.464 259.643 425.436 259.643C425.408 259.644 425.379 259.638 425.354 259.627C425.328 259.615 425.305 259.597 425.286 259.575C424.304 258.407 423.105 257.51 421.688 256.882Z" fill="#FFC700"/>
<path d="M547.714 244.07L530.691 253.563C527.639 255.264 526.52 259.163 528.191 262.271L528.391 262.643C530.061 265.751 533.889 266.891 536.94 265.189L553.963 255.697C557.014 253.995 558.134 250.096 556.463 246.989L556.263 246.616C554.593 243.508 550.765 242.368 547.714 244.07Z" fill="#FFC700"/>
<path d="M455.481 251.524C473.57 246.15 492.962 254.097 502.548 270.365C511.574 285.685 510.157 305.132 499.094 318.95C483.213 338.787 453.689 339.616 436.562 320.971C436.481 320.887 436.457 320.786 436.49 320.671C441.376 303.038 439.805 286.1 431.778 269.856C431.757 269.812 431.747 269.762 431.75 269.712C431.753 269.662 431.77 269.613 431.797 269.571C437.607 260.505 445.502 254.489 455.481 251.524ZM485.296 292.15C485.296 287.193 483.362 282.439 479.921 278.934C476.48 275.429 471.812 273.459 466.945 273.459C462.079 273.459 457.411 275.429 453.97 278.934C450.528 282.439 448.595 287.193 448.595 292.15C448.595 297.107 450.528 301.861 453.97 305.367C457.411 308.872 462.079 310.841 466.945 310.841C471.812 310.841 476.48 308.872 479.921 305.367C483.362 301.861 485.296 297.107 485.296 292.15Z" fill="#FFC700"/>
<path d="M559.677 279.203L540.177 280.418C536.743 280.631 534.129 283.641 534.339 287.139L534.37 287.663C534.58 291.161 537.535 293.824 540.969 293.61L560.469 292.395C563.904 292.181 566.518 289.171 566.307 285.673L566.276 285.15C566.066 281.651 563.111 278.989 559.677 279.203Z" fill="#FFC700"/>
<path d="M558.445 314.144L539.75 308.612C536.425 307.628 532.947 309.575 531.982 312.962L531.855 313.406C530.889 316.792 532.801 320.335 536.125 321.318L554.82 326.85C558.145 327.834 561.623 325.887 562.588 322.501L562.715 322.056C563.681 318.67 561.769 315.128 558.445 314.144Z" fill="#FFC700"/>
<path d="M543.183 347.917L527.834 335.834C525.076 333.663 521.113 334.18 518.982 336.989L518.741 337.306C516.61 340.115 517.118 344.151 519.875 346.322L535.225 358.405C537.982 360.576 541.945 360.059 544.076 357.25L544.317 356.933C546.448 354.124 545.94 350.088 543.183 347.917Z" fill="#FFC700"/>
<path d="M509.925 360.957L504.221 363.846C504.179 363.868 504.13 363.871 504.085 363.856C504.041 363.841 504.004 363.808 503.983 363.765L501.35 358.399C501.331 358.359 501.328 358.313 501.342 358.271C501.356 358.228 501.386 358.192 501.426 358.171L514.394 351.59C514.41 351.582 514.427 351.578 514.444 351.577C514.461 351.575 514.478 351.578 514.494 351.584C514.51 351.589 514.525 351.598 514.538 351.61C514.551 351.622 514.561 351.636 514.569 351.652L516.625 355.849C516.688 355.978 516.703 356.113 516.671 356.254L515.478 361.285C515.44 361.442 515.499 361.508 515.656 361.485C519.038 360.988 521.507 362.589 522.822 365.756C526.109 373.691 514.535 380.427 508.69 374.768C508.605 374.685 508.594 374.595 508.66 374.497L512.02 369.344C512.037 369.317 512.06 369.295 512.087 369.278C512.114 369.262 512.145 369.252 512.176 369.25C512.207 369.247 512.239 369.252 512.268 369.263C512.298 369.275 512.324 369.293 512.345 369.316C513.386 370.474 514.528 370.687 515.773 369.957C516.64 369.448 517.084 368.53 516.568 367.592C515.678 365.976 514.152 367.091 513.065 367.615C513.015 367.64 512.96 367.652 512.904 367.65C512.849 367.648 512.795 367.632 512.747 367.604L509.19 365.551C509.067 365.479 509.022 365.373 509.058 365.231L510.077 361.08C510.115 360.928 510.064 360.887 509.925 360.957Z" fill="#FFC700"/>
<path d="M491.423 370.354C491.306 370.414 491.274 370.504 491.324 370.624L491.82 371.847C491.829 371.87 491.843 371.891 491.861 371.908C491.879 371.925 491.9 371.938 491.923 371.945C491.946 371.953 491.97 371.956 491.995 371.953C492.019 371.95 492.042 371.941 492.063 371.928C497.403 368.537 503.13 370.852 504.145 377.318C505.02 382.873 499.02 386.669 494.441 386.754C492.482 386.787 490.762 386.094 489.283 384.674C489.182 384.577 489.17 384.467 489.249 384.347L492.589 379.235C492.675 379.106 492.775 379.094 492.888 379.196C494.34 380.521 495.783 380.541 497.217 379.258C498.6 378.02 496.922 375.798 495.017 376.797C492.871 377.921 490.722 379.043 488.571 380.165C488.554 380.173 488.536 380.178 488.517 380.179C488.498 380.18 488.479 380.177 488.461 380.17C488.444 380.164 488.427 380.153 488.413 380.139C488.4 380.126 488.389 380.109 488.381 380.091L483.249 367.534C483.237 367.506 483.237 367.474 483.247 367.446C483.258 367.417 483.279 367.394 483.306 367.38L495.168 361.362C495.208 361.342 495.253 361.338 495.295 361.352C495.337 361.365 495.372 361.396 495.392 361.435L498.02 366.79C498.032 366.813 498.039 366.837 498.04 366.863C498.042 366.888 498.039 366.914 498.031 366.938C498.023 366.963 498.01 366.985 497.993 367.005C497.976 367.024 497.956 367.041 497.933 367.052L491.423 370.354Z" fill="#FFC700"/>
<path d="M468.94 362.55L468.409 362.551C464.972 362.557 462.191 365.4 462.197 368.9L462.231 388.799C462.237 392.299 465.028 395.132 468.465 395.126L468.995 395.125C472.432 395.119 475.213 392.276 475.207 388.776L475.173 368.877C475.167 365.377 472.376 362.544 468.94 362.55Z" fill="#FFC700"/>
<path d="M109.706 388.225H101.567C101.541 388.225 101.517 388.234 101.496 388.249C101.476 388.264 101.461 388.285 101.453 388.31L100.063 392.457C100.055 392.481 100.04 392.503 100.02 392.518C99.9992 392.533 99.9746 392.541 99.9494 392.542H93.9992C93.9797 392.542 93.9605 392.537 93.9432 392.528C93.926 392.518 93.9111 392.505 93.9 392.489C93.8888 392.473 93.8817 392.454 93.8792 392.434C93.8767 392.414 93.8789 392.394 93.8856 392.376L101.218 372.539C101.227 372.515 101.242 372.495 101.262 372.48C101.283 372.466 101.307 372.458 101.332 372.458L110.009 372.462C110.034 372.462 110.058 372.47 110.078 372.484C110.099 372.499 110.114 372.519 110.123 372.543L117.379 392.376C117.386 392.394 117.388 392.414 117.386 392.434C117.383 392.454 117.376 392.473 117.365 392.489C117.354 392.505 117.339 392.518 117.322 392.528C117.305 392.537 117.285 392.542 117.266 392.542L111.297 392.546C111.271 392.545 111.247 392.537 111.227 392.522C111.206 392.506 111.191 392.485 111.183 392.461L109.82 388.31C109.812 388.285 109.797 388.264 109.776 388.249C109.756 388.234 109.731 388.225 109.706 388.225ZM103.15 383.241C103.137 383.277 103.133 383.317 103.138 383.356C103.144 383.394 103.158 383.431 103.181 383.463C103.203 383.495 103.232 383.521 103.267 383.538C103.301 383.556 103.339 383.565 103.377 383.565L107.945 383.572C107.983 383.573 108.02 383.563 108.054 383.546C108.088 383.528 108.117 383.503 108.139 383.472C108.161 383.44 108.176 383.404 108.182 383.366C108.187 383.328 108.184 383.289 108.172 383.252L105.9 376.358C105.884 376.309 105.854 376.266 105.813 376.236C105.772 376.206 105.723 376.189 105.672 376.189C105.622 376.189 105.572 376.206 105.532 376.236C105.491 376.266 105.46 376.309 105.445 376.358L103.15 383.241Z" fill="#FFC700"/>
<path d="M144.51 382.994C144.515 383.027 144.538 383.057 144.578 383.083C144.598 383.098 144.625 383.107 144.658 383.11C146.844 383.357 148.217 384.569 148.775 386.748C149.242 388.586 149.585 390.448 149.805 392.334C149.822 392.472 149.762 392.542 149.623 392.542H143.673C143.552 392.542 143.486 392.482 143.476 392.361C143.222 389.838 143.355 386.69 140.442 386.593C138.952 386.544 137.464 386.53 135.977 386.551C135.848 386.553 135.783 386.619 135.783 386.748L135.78 392.357C135.78 392.48 135.718 392.542 135.594 392.542L130.042 392.546C129.915 392.546 129.852 392.482 129.852 392.353V372.671C129.852 372.552 129.91 372.492 130.026 372.489C135.915 372.415 140.169 372.416 142.79 372.493C146.65 372.609 149.702 374.684 149.225 379.032C148.915 381.883 147.01 382.589 144.578 382.905C144.525 382.913 144.502 382.943 144.51 382.994ZM135.708 377.393V381.844C135.708 381.899 135.729 381.951 135.766 381.989C135.804 382.027 135.855 382.049 135.908 382.049H140.961C141.569 382.049 142.151 381.818 142.581 381.407C143.011 380.996 143.252 380.439 143.252 379.858V379.379C143.252 378.798 143.011 378.241 142.581 377.83C142.151 377.419 141.569 377.188 140.961 377.188H135.908C135.855 377.188 135.804 377.21 135.766 377.248C135.729 377.286 135.708 377.338 135.708 377.393Z" fill="#FFC700"/>
<path d="M159.887 377.404V379.965C159.887 379.999 159.9 380.031 159.924 380.055C159.947 380.079 159.979 380.093 160.012 380.093L171.06 380.097C171.093 380.097 171.125 380.11 171.149 380.134C171.172 380.158 171.185 380.19 171.185 380.224V384.564C171.185 384.581 171.182 384.597 171.176 384.613C171.169 384.628 171.16 384.642 171.149 384.654C171.137 384.666 171.123 384.675 171.108 384.681C171.093 384.688 171.077 384.691 171.06 384.691H160.012C159.979 384.691 159.947 384.705 159.924 384.728C159.9 384.752 159.887 384.785 159.887 384.818L159.883 387.592C159.883 387.626 159.897 387.658 159.92 387.682C159.943 387.706 159.975 387.719 160.008 387.719H171.568C171.601 387.719 171.633 387.733 171.656 387.757C171.68 387.781 171.693 387.813 171.693 387.847V392.414C171.693 392.448 171.68 392.48 171.656 392.504C171.633 392.528 171.601 392.542 171.568 392.542H154.104C154.07 392.542 154.039 392.528 154.015 392.504C153.992 392.48 153.979 392.448 153.979 392.414L153.982 372.585C153.982 372.552 153.996 372.519 154.019 372.495C154.042 372.472 154.074 372.458 154.107 372.458H171.36C171.393 372.458 171.424 372.472 171.448 372.495C171.471 372.519 171.484 372.552 171.484 372.585V377.149C171.484 377.183 171.471 377.215 171.448 377.239C171.424 377.263 171.393 377.276 171.36 377.276H160.012C159.979 377.276 159.947 377.29 159.924 377.314C159.9 377.338 159.887 377.37 159.887 377.404Z" fill="#FFC700"/>
<path d="M190.328 377.986C190.313 377.972 190.295 377.963 190.276 377.958C190.257 377.954 190.236 377.955 190.217 377.962C190.198 377.969 190.181 377.981 190.168 377.997C190.155 378.012 190.146 378.031 190.142 378.052L187.642 392.349C187.619 392.477 187.544 392.542 187.415 392.542L179.446 392.546C179.302 392.546 179.215 392.473 179.185 392.329L174.977 372.639C174.951 372.519 174.999 372.458 175.121 372.458H180.878C181.019 372.458 181.101 372.529 181.124 372.67L183.434 386.547C183.634 387.745 183.846 387.748 184.071 386.554L186.585 373.083C186.592 373.05 186.609 373.02 186.634 372.998C186.66 372.976 186.692 372.964 186.726 372.964L193.835 372.96C193.883 372.96 193.93 372.977 193.968 373.009C194.005 373.041 194.03 373.085 194.039 373.133L196.683 387.295C196.706 387.411 196.773 387.458 196.884 387.438C196.922 387.433 196.957 387.416 196.99 387.388C197.02 387.362 197.039 387.325 197.047 387.276C197.875 382.4 198.694 377.522 199.505 372.643C199.525 372.52 199.597 372.458 199.721 372.458L205.584 372.462C205.596 372.462 205.609 372.464 205.621 372.47C205.632 372.475 205.642 372.483 205.65 372.493C205.658 372.503 205.664 372.515 205.667 372.528C205.67 372.54 205.67 372.554 205.667 372.566L201.436 392.36C201.426 392.411 201.398 392.457 201.357 392.49C201.317 392.523 201.266 392.541 201.213 392.542H193.187C193.058 392.542 192.983 392.477 192.96 392.349C192.152 387.709 191.35 383.075 190.555 378.445C190.519 378.247 190.444 378.094 190.328 377.986Z" fill="#FFC700"/>
<path d="M215.45 372.458H209.67C209.591 372.458 209.526 372.524 209.526 372.605V392.395C209.526 392.476 209.591 392.542 209.67 392.542H215.45C215.529 392.542 215.594 392.476 215.594 392.395V372.605C215.594 372.524 215.529 372.458 215.45 372.458Z" fill="#FFC700"/>
<path d="M235.743 382.843C235.708 382.848 235.675 382.866 235.651 382.894C235.627 382.922 235.614 382.957 235.614 382.994C235.613 383.031 235.626 383.066 235.649 383.094C235.672 383.123 235.704 383.142 235.739 383.148C238.078 383.426 239.487 384.826 239.966 387.349C240.282 389.01 240.552 390.713 240.777 392.457C240.778 392.467 240.778 392.478 240.775 392.488C240.772 392.498 240.767 392.508 240.76 392.516C240.753 392.524 240.745 392.531 240.735 392.535C240.726 392.539 240.715 392.542 240.705 392.541L234.656 392.545C234.522 392.545 234.448 392.476 234.433 392.337C234.164 389.895 234.251 386.778 231.638 386.593C230.511 386.513 228.929 386.505 226.892 386.57C226.778 386.572 226.721 386.631 226.721 386.747L226.718 392.337C226.718 392.473 226.649 392.541 226.513 392.541L221.021 392.545C220.885 392.545 220.817 392.476 220.817 392.337V372.662C220.817 372.526 220.884 372.458 221.017 372.458C225.262 372.432 229.49 372.475 233.702 372.585C235.214 372.626 236.544 372.936 237.69 373.515C239.902 374.63 240.807 377.782 240.027 379.984C239.296 382.048 237.751 382.623 235.743 382.843ZM226.68 377.377L226.687 381.821C226.687 381.875 226.708 381.927 226.746 381.965C226.784 382.004 226.835 382.025 226.888 382.025L231.91 382.014C232.514 382.013 233.092 381.787 233.519 381.387C233.945 380.987 234.184 380.445 234.183 379.88V379.286C234.182 379.007 234.123 378.73 234.008 378.471C233.893 378.213 233.725 377.979 233.513 377.781C233.302 377.584 233.051 377.428 232.774 377.321C232.498 377.215 232.202 377.16 231.903 377.161L226.88 377.172C226.827 377.172 226.776 377.194 226.738 377.232C226.701 377.27 226.68 377.322 226.68 377.377Z" fill="#FFC700"/>
<path d="M250.84 384.811V387.6C250.84 387.632 250.852 387.662 250.874 387.684C250.896 387.707 250.926 387.719 250.957 387.719H262.543C262.559 387.719 262.574 387.723 262.588 387.729C262.603 387.735 262.616 387.743 262.626 387.754C262.637 387.766 262.646 387.779 262.652 387.793C262.658 387.808 262.661 387.823 262.661 387.839L262.657 392.422C262.657 392.454 262.645 392.484 262.623 392.507C262.601 392.529 262.571 392.542 262.54 392.542H245.045C245.014 392.542 244.984 392.529 244.962 392.507C244.94 392.484 244.928 392.454 244.928 392.422L244.924 372.578C244.924 372.546 244.936 372.516 244.958 372.493C244.98 372.471 245.01 372.458 245.041 372.458H262.29C262.321 372.458 262.351 372.471 262.373 372.493C262.395 372.516 262.407 372.546 262.407 372.578V377.157C262.407 377.189 262.395 377.219 262.373 377.241C262.351 377.264 262.321 377.276 262.29 377.276H250.957C250.926 377.276 250.896 377.289 250.874 377.312C250.852 377.334 250.84 377.364 250.84 377.396V379.973C250.84 380.005 250.852 380.035 250.874 380.058C250.896 380.08 250.926 380.093 250.957 380.093H262.006C262.037 380.093 262.067 380.105 262.089 380.128C262.111 380.15 262.123 380.181 262.123 380.212V384.572C262.123 384.587 262.12 384.603 262.114 384.617C262.108 384.632 262.1 384.645 262.089 384.656C262.078 384.667 262.065 384.676 262.051 384.682C262.036 384.688 262.021 384.691 262.006 384.691H250.957C250.926 384.691 250.896 384.704 250.874 384.726C250.852 384.749 250.84 384.779 250.84 384.811Z" fill="#FFC700"/>
<path d="M267.407 372.554C267.407 372.541 267.41 372.528 267.415 372.516C267.42 372.504 267.427 372.493 267.436 372.484C267.446 372.475 267.457 372.468 267.468 372.464C267.48 372.459 267.493 372.457 267.506 372.458L279.149 372.481C281.49 372.485 283.734 373.387 285.387 374.988C287.04 376.589 287.966 378.758 287.962 381.018L287.955 384.035C287.953 385.154 287.722 386.262 287.277 387.295C286.832 388.328 286.18 389.266 285.358 390.056C284.537 390.846 283.563 391.472 282.491 391.898C281.419 392.325 280.27 392.543 279.111 392.541L267.468 392.518C267.444 392.517 267.42 392.506 267.403 392.488C267.387 392.47 267.377 392.446 267.377 392.421L267.407 372.554ZM273.361 377.712L273.346 387.302C273.346 387.367 273.371 387.428 273.416 387.474C273.461 387.52 273.522 387.545 273.585 387.545L277.906 387.553C278.927 387.555 279.906 387.138 280.63 386.395C281.353 385.651 281.76 384.641 281.762 383.587V381.458C281.763 380.936 281.664 380.419 281.472 379.936C281.28 379.454 280.997 379.015 280.64 378.646C280.284 378.276 279.86 377.982 279.394 377.782C278.927 377.581 278.427 377.477 277.921 377.476L273.6 377.469C273.537 377.469 273.476 377.494 273.431 377.54C273.386 377.586 273.361 377.647 273.361 377.712Z" fill="#FFC700"/>
<path d="M316.387 382.835C316.345 382.841 316.308 382.862 316.28 382.894C316.252 382.926 316.237 382.967 316.236 383.009C316.236 383.052 316.25 383.093 316.277 383.126C316.304 383.158 316.342 383.18 316.383 383.186C318.454 383.405 319.756 384.641 320.292 386.894C320.719 388.691 321.044 390.51 321.269 392.349C321.284 392.477 321.227 392.541 321.099 392.541H315.145C315.016 392.541 314.945 392.476 314.932 392.345C314.713 390.057 314.808 386.905 312.209 386.6C311.267 386.492 309.662 386.487 307.392 386.585C307.286 386.588 307.232 386.643 307.232 386.751V392.322C307.232 392.468 307.159 392.541 307.013 392.541H301.513C301.382 392.541 301.316 392.476 301.316 392.345V372.574C301.316 372.499 301.353 372.462 301.426 372.462C305.481 372.454 309.548 372.457 313.626 372.469C317.724 372.481 321.458 374.503 320.686 379.325C320.311 381.651 318.538 382.642 316.387 382.835ZM307.176 377.4L307.183 381.844C307.183 381.898 307.204 381.95 307.242 381.988C307.28 382.027 307.331 382.048 307.384 382.048L312.444 382.037C313.042 382.036 313.614 381.81 314.036 381.409C314.458 381.008 314.695 380.465 314.694 379.9V379.313C314.693 379.033 314.635 378.756 314.521 378.497C314.407 378.238 314.241 378.003 314.031 377.806C313.822 377.608 313.573 377.451 313.299 377.345C313.026 377.238 312.732 377.183 312.437 377.184L307.376 377.195C307.323 377.195 307.272 377.217 307.234 377.255C307.197 377.293 307.176 377.345 307.176 377.4Z" fill="#FFC700"/>
<path d="M331.469 387.719H343.044C343.077 387.719 343.109 387.733 343.132 387.757C343.156 387.781 343.169 387.813 343.169 387.847V392.414C343.169 392.448 343.156 392.48 343.132 392.504C343.109 392.528 343.077 392.542 343.044 392.542H325.568C325.535 392.542 325.503 392.528 325.48 392.504C325.457 392.48 325.443 392.448 325.443 392.414V372.585C325.443 372.552 325.457 372.519 325.48 372.495C325.503 372.472 325.535 372.458 325.568 372.458H342.805C342.838 372.458 342.87 372.472 342.894 372.495C342.917 372.519 342.93 372.552 342.93 372.585L342.934 377.149C342.934 377.183 342.921 377.215 342.897 377.239C342.874 377.263 342.842 377.276 342.809 377.276H331.473C331.44 377.276 331.408 377.29 331.385 377.314C331.361 377.338 331.348 377.37 331.348 377.404V379.965C331.348 379.999 331.361 380.031 331.385 380.055C331.408 380.079 331.44 380.093 331.473 380.093L342.498 380.097C342.532 380.097 342.563 380.11 342.587 380.134C342.61 380.158 342.623 380.19 342.623 380.224V384.564C342.623 384.581 342.62 384.597 342.614 384.613C342.608 384.628 342.598 384.642 342.587 384.654C342.575 384.666 342.561 384.675 342.546 384.681C342.531 384.688 342.515 384.691 342.498 384.691L331.473 384.687C331.44 384.687 331.408 384.701 331.385 384.725C331.361 384.748 331.348 384.781 331.348 384.815L331.344 387.592C331.344 387.626 331.357 387.658 331.381 387.682C331.404 387.706 331.436 387.719 331.469 387.719Z" fill="#FFC700"/>
<path d="M353.811 388.314L352.429 392.453C352.42 392.479 352.404 392.501 352.382 392.517C352.36 392.533 352.334 392.542 352.308 392.542H346.373C346.352 392.542 346.331 392.537 346.313 392.527C346.294 392.517 346.278 392.503 346.266 392.485C346.254 392.468 346.247 392.448 346.244 392.427C346.242 392.406 346.244 392.384 346.251 392.364L353.58 372.543C353.59 372.518 353.606 372.496 353.628 372.481C353.649 372.466 353.675 372.458 353.701 372.458H362.363C362.39 372.458 362.415 372.466 362.437 372.481C362.459 372.496 362.475 372.518 362.485 372.543L369.738 392.364C369.745 392.384 369.748 392.406 369.745 392.427C369.743 392.448 369.735 392.468 369.723 392.485C369.711 392.503 369.695 392.517 369.677 392.527C369.658 392.537 369.637 392.542 369.617 392.542L363.67 392.546C363.643 392.546 363.616 392.538 363.593 392.522C363.571 392.506 363.554 392.483 363.545 392.457L362.189 388.314C362.181 388.288 362.164 388.265 362.143 388.249C362.121 388.234 362.095 388.225 362.068 388.225H353.932C353.906 388.225 353.88 388.234 353.858 388.249C353.836 388.265 353.82 388.288 353.811 388.314ZM355.523 383.214C355.51 383.253 355.506 383.295 355.512 383.336C355.518 383.377 355.533 383.417 355.557 383.45C355.581 383.484 355.612 383.512 355.648 383.531C355.685 383.55 355.725 383.561 355.766 383.561L360.28 383.569C360.321 383.568 360.361 383.558 360.396 383.539C360.432 383.52 360.463 383.493 360.487 383.459C360.511 383.426 360.526 383.387 360.532 383.347C360.539 383.306 360.535 383.264 360.523 383.225L358.277 376.405C358.259 376.354 358.226 376.31 358.183 376.279C358.139 376.248 358.087 376.231 358.034 376.231C357.981 376.231 357.93 376.248 357.886 376.279C357.843 376.31 357.81 376.354 357.792 376.405L355.523 383.214Z" fill="#FFC700"/>
<path d="M389.763 387.735L389.759 392.399C389.759 392.437 389.744 392.473 389.718 392.5C389.692 392.527 389.656 392.542 389.619 392.542H373.446C373.409 392.542 373.373 392.527 373.347 392.5C373.321 392.473 373.306 392.437 373.306 392.399V372.601C373.306 372.563 373.321 372.527 373.347 372.5C373.373 372.473 373.409 372.458 373.446 372.458H379.245C379.282 372.458 379.318 372.473 379.344 372.5C379.37 372.527 379.385 372.563 379.385 372.601V387.449C379.385 387.468 379.389 387.487 379.396 387.504C379.403 387.521 379.413 387.537 379.426 387.55C379.439 387.564 379.455 387.574 379.472 387.581C379.489 387.588 379.507 387.592 379.525 387.592H389.623C389.66 387.592 389.696 387.607 389.722 387.634C389.748 387.661 389.763 387.697 389.763 387.735Z" fill="#FFC700"/>
<path d="M399.918 372.458H394.153C394.07 372.458 394.002 372.527 394.002 372.612V392.387C394.002 392.473 394.07 392.542 394.153 392.542H399.918C400.001 392.542 400.069 392.473 400.069 392.387V372.612C400.069 372.527 400.001 372.458 399.918 372.458Z" fill="#FFC700"/>
<path d="M417.206 377.512V392.407C417.206 392.442 417.192 392.477 417.167 392.502C417.142 392.527 417.109 392.542 417.074 392.542H411.279C411.243 392.542 411.21 392.527 411.185 392.502C411.16 392.477 411.146 392.442 411.146 392.407V377.508C411.146 377.472 411.132 377.438 411.107 377.412C411.082 377.387 411.049 377.373 411.014 377.373H404.404C404.387 377.373 404.37 377.369 404.354 377.363C404.337 377.356 404.323 377.346 404.311 377.333C404.298 377.321 404.289 377.306 404.282 377.29C404.275 377.273 404.272 377.256 404.272 377.238V372.593C404.272 372.575 404.275 372.558 404.282 372.541C404.289 372.525 404.298 372.51 404.311 372.498C404.323 372.485 404.337 372.475 404.354 372.468C404.37 372.462 404.387 372.458 404.404 372.458H423.91C423.945 372.458 423.979 372.472 424.004 372.498C424.029 372.523 424.043 372.557 424.043 372.593L424.046 377.238C424.046 377.274 424.032 377.308 424.007 377.333C423.983 377.359 423.949 377.373 423.914 377.373L417.339 377.377C417.303 377.377 417.27 377.391 417.245 377.416C417.22 377.442 417.206 377.476 417.206 377.512Z" fill="#FFC700"/>
<path d="M437.723 381.069L442.17 372.647C442.238 372.521 442.341 372.458 442.48 372.458H448.555C448.572 372.458 448.589 372.462 448.604 372.47C448.619 372.479 448.631 372.491 448.64 372.506C448.648 372.521 448.653 372.538 448.653 372.556C448.652 372.573 448.648 372.59 448.639 372.605C446.101 377.044 443.556 381.491 441.003 385.945C440.738 386.408 440.603 386.907 440.598 387.442C440.585 389.083 440.58 390.721 440.583 392.357C440.583 392.48 440.521 392.542 440.397 392.542H434.739C434.607 392.542 434.542 392.476 434.542 392.345V387.11C434.542 386.814 434.465 386.524 434.318 386.269L426.501 372.643C426.49 372.624 426.485 372.603 426.485 372.581C426.485 372.56 426.49 372.538 426.501 372.519C426.512 372.501 426.527 372.485 426.546 372.474C426.565 372.464 426.586 372.458 426.607 372.458L432.64 372.462C432.705 372.462 432.767 372.479 432.822 372.512C432.877 372.544 432.921 372.591 432.951 372.647L437.401 381.069C437.417 381.099 437.44 381.124 437.468 381.141C437.497 381.159 437.529 381.168 437.562 381.168C437.595 381.168 437.628 381.159 437.656 381.141C437.685 381.124 437.708 381.099 437.723 381.069Z" fill="#FFC700"/>
<path d="M19.5414 212.711C22.9994 205.775 26.465 198.838 29.9078 191.894C30.332 191.041 30.7246 190.473 31.0857 190.193C32.3583 189.209 34.4717 189.611 35.3429 190.945C35.6181 191.367 35.8239 192.116 35.9602 193.191C37.0334 201.642 38.0913 210.115 39.1342 218.609C39.1533 218.766 39.2038 218.918 39.2826 219.055C39.3614 219.191 39.4668 219.31 39.5924 219.404C42.9507 221.881 46.3519 224.384 49.796 226.915C51.4436 228.123 51.6216 230.862 49.8604 232.019C49.4412 232.292 48.7052 232.51 47.6523 232.675C43.2486 233.364 38.8463 234.055 34.4452 234.746C33.8695 234.835 33.2976 235.252 32.8469 235.726C29.9103 238.812 26.9763 241.903 24.0447 244.996C23.57 245.498 22.8416 245.695 21.8593 245.587C20.5539 245.443 19.6853 244.748 19.2535 243.504C17.8648 239.491 16.4798 235.481 15.0986 231.471C14.9471 231.034 14.6214 230.643 14.1215 230.298C10.1799 227.58 6.222 224.886 2.24764 222.216C0.577351 221.09 0.395551 218.324 2.09993 217.132C2.51655 216.841 3.2185 216.618 4.20578 216.461C8.60434 215.769 13.0029 215.081 17.4015 214.397C18.4051 214.242 19.0604 213.679 19.5414 212.711Z" fill="#FFC700"/>
<path d="M14.505 245.618C16.0654 250.197 21.8224 252.184 25.9053 249.962C26.7563 249.499 28.015 248.381 29.6815 246.609C31.7924 244.367 33.9159 242.132 36.0521 239.904C36.1329 239.82 36.2301 239.768 36.3437 239.75L44.7709 238.435C44.7823 238.433 44.794 238.434 44.805 238.437C44.8161 238.44 44.8263 238.445 44.8349 238.453C44.8436 238.46 44.8505 238.469 44.8551 238.479C44.8597 238.49 44.862 238.501 44.8618 238.512V393.004C44.8618 393.027 44.8526 393.05 44.8363 393.066C44.82 393.083 44.7978 393.092 44.7747 393.092H10.1986C10.1755 393.092 10.1533 393.083 10.137 393.066C10.1206 393.05 10.1115 393.027 10.1115 393.004V234.075C10.1115 233.96 10.1683 233.903 10.2819 233.906C10.4081 233.908 10.4889 233.961 10.5243 234.064C11.1959 235.957 12.5228 239.808 14.505 245.618Z" fill="#FFC700"/>
</svg>
